<svg width="395" height="249" viewBox="0 0 395 249" fill="none" xmlns="http://www.w3.org/2000/svg">
    <line x1="11.2254" y1="203.52" x2="78.7233" y2="85.4525" stroke="#00BE16" />
    <line x1="12.9663" y1="180.326" x2="60.6119" y2="96.9842" stroke="#00BE16" />
    <line x1="29.0845" y1="212.579" x2="111.968" y2="67.598" stroke="#00BE16" />
    <line x1="20.4031" y1="207.615" x2="97.3308" y2="73.0527" stroke="#00BE16" />
    <line x1="46.4475" y1="222.505" x2="140.746" y2="57.5567" stroke="#00BE16" />
    <line x1="37.7659" y1="217.542" x2="126.109" y2="63.0116" stroke="#00BE16" />
    <line x1="64.803" y1="230.694" x2="164.065" y2="57.0652" stroke="#00BE16" />
    <line x1="56.1216" y1="225.731" x2="153.398" y2="55.5746" stroke="#00BE16" />
    <line x1="81.1733" y1="242.357" x2="186.391" y2="58.31" stroke="#00BE16" />
    <line x1="72.4917" y1="237.394" x2="175.724" y2="56.8195" stroke="#00BE16" />
    <line x1="99.5288" y1="250.547" x2="207.228" y2="62.1591" stroke="#00BE16" />
    <line x1="90.8474" y1="245.584" x2="197.057" y2="59.8005" stroke="#00BE16" />
    <line x1="116.892" y1="260.473" x2="227.569" y2="66.8764" stroke="#00BE16" />
    <line x1="108.21" y1="255.51" x2="217.894" y2="63.6495" stroke="#00BE16" />
    <line x1="134.751" y1="269.531" x2="246.42" y2="74.1981" stroke="#00BE16" />
    <line x1="126.07" y1="264.568" x2="237.243" y2="70.1031" stroke="#00BE16" />
    <line x1="152.114" y1="279.457" x2="263.783" y2="84.1242" stroke="#00BE16" />
    <line x1="143.432" y1="274.494" x2="255.102" y2="79.1612" stroke="#00BE16" />
    <line x1="169.973" y1="288.515" x2="279.657" y2="96.6548" stroke="#00BE16" />
    <line x1="161.292" y1="283.552" x2="271.968" y2="89.9555" stroke="#00BE16" />
    <line x1="187.336" y1="298.441" x2="294.042" y2="111.79" stroke="#00BE16" />
    <line x1="178.655" y1="293.478" x2="286.85" y2="104.222" stroke="#00BE16" />
    <line x1="205.195" y1="307.499" x2="307.931" y2="127.793" stroke="#00BE16" />
    <line x1="196.514" y1="302.536" x2="301.235" y2="119.357" stroke="#00BE16" />
    <line x1="222.062" y1="318.294" x2="320.331" y2="146.401" stroke="#00BE16" />
    <line x1="213.38" y1="313.331" x2="314.627" y2="136.229" stroke="#00BE16" />
    <line x1="239.921" y1="327.352" x2="333.723" y2="163.272" stroke="#00BE16" />
    <line x1="231.24" y1="322.389" x2="327.027" y2="154.836" stroke="#00BE16" />
    <line x1="257.284" y1="337.278" x2="341.16" y2="190.561" stroke="#00BE16" />
    <line x1="248.603" y1="332.315" x2="336.945" y2="177.785" stroke="#00BE16" />
    <line x1="275.143" y1="346.336" x2="346.115" y2="222.191" stroke="#00BE16" />
    <line x1="277.373" y1="362.585" x2="344.871" y2="244.517" stroke="#00BE16" />
    <line x1="266.462" y1="341.373" x2="344.382" y2="205.074" stroke="#00BE16" />
</svg>